<svg xmlns="http://www.w3.org/2000/svg" viewBox="0 0 112 112" role="img" aria-labelledby="title desc">
  <title id="title">BastionBoost black icon</title>
  <desc id="desc">A black stylized BastionBoost hand and shield mark for light browser themes.</desc>
  <g fill="#000">
    <path d="M41.7 0 96 31.5l16 45.3-15.1-8.7-13.1-28.5-48.5-28L41.7 0Z"/>
    <path d="m37.6 15.8 38.8 22.4 12.2 26.4-12.2-7L66.7 43 31.2 22.5l6.4-6.7Z"/>
    <path d="M50.4 31.2 69 42l20.5 40.7L77.2 75.6 63.3 53.9 48.4 44l2-12.8Z"/>
    <path d="M44.3 36.1 58.8 53 32.9 78.9 26 72l14.5-14.5-7.5-7.6L9.7 73.2 0 63.5l3.3-3.3a10 10 0 0 1 12.9-1.1l28.1-23Z"/>
    <path d="m15.5 78.1 27.9-27.9 8 8-21.7 21.7 8.1 8.1 32-32 8 8-27.2 27.2a11.5 11.5 0 0 1-16.2 0l-1.7-1.7-7.9 7.9 3.8 3.8-7.5 7.5L8 95.5l7.5-7.5 3.8 3.8 7.9-7.9-4.2-4.2a5.3 5.3 0 0 0-7.5-1.6Z"/>
    <path d="m43.7 66.3 5.6 5.6-8.9 8.9-5.6-5.6 8.9-8.9Z"/>
  </g>
</svg>
